{
  "accessors": [
    {
      "bufferView": 2,
      "componentType": 5126,
      "count": 4007,
      "max": [
        1.0516799688339233,
        0.18913500010967255,
        0.5755159854888916
      ],
      "min": [
        -1.0516029596328735,
        -0.16284100711345673,
        -0.023876000195741653
      ],
      "type": "VEC3"
    },
    {
      "bufferView": 2,
      "byteOffset": 48084,
      "componentType": 5126,
      "count": 4007,
      "max": [
        1.0,
        1.0,
        0.9995241165161133
      ],
      "min": [
        -1.0,
        -1.0,
        -0.9998888969421387
      ],
      "type": "VEC3"
    },
    {
      "bufferView": 1,
      "componentType": 5126,
      "count": 4007,
      "max": [
        0.9908980131149292,
        1.9905619621276855
      ],
      "min": [
        0.010240999981760979,
        1.0032880306243896
      ],
      "type": "VEC2"
    },
    {
      "bufferView": 0,
      "componentType": 5125,
      "count": 19368,
      "type": "SCALAR"
    },
    {
      "bufferView": 2,
      "byteOffset": 96168,
      "componentType": 5126,
      "count": 1709,
      "max": [
        0.9200009703636169,
        0.3364970088005066,
        0.48917099833488464
      ],
      "min": [
        -0.9200009703636169,
        -0.3089100122451782,
        -0.08062099665403366
      ],
      "type": "VEC3"
    },
    {
      "bufferView": 2,
      "byteOffset": 116676,
      "componentType": 5126,
      "count": 1709,
      "max": [
        0.9995103478431702,
        0.9999777674674988,
        1.0
      ],
      "min": [
        -0.9981055855751038,
        -0.9992143511772156,
        -0.9996552467346191
      ],
      "type": "VEC3"
    },
    {
      "bufferView": 1,
      "byteOffset": 32056,
      "componentType": 5126,
      "count": 1709,
      "max": [
        0.9876790046691895,
        1.9979890584945679
      ],
      "min": [
        0.015595999546349049,
        1.0096490383148193
      ],
      "type": "VEC2"
    },
    {
      "bufferView": 0,
      "byteOffset": 77472,
      "componentType": 5125,
      "count": 7974,
      "type": "SCALAR"
    },
    {
      "bufferView": 2,
      "byteOffset": 137184,
      "componentType": 5126,
      "count": 2102,
      "max": [
        0.7944509983062744,
        0.28573599457740784,
        -0.005886999890208244
      ],
      "min": [
        -0.7944430112838745,
        -0.18593400716781616,
        -1.0071719884872437
      ],
      "type": "VEC3"
    },
    {
      "bufferView": 2,
      "byteOffset": 162408,
      "componentType": 5126,
      "count": 2102,
      "max": [
        0.9997861385345459,
        0.9978437423706055,
        0.9987456202507019
      ],
      "min": [
        -0.999933660030365,
        -0.9998888969421387,
        -0.9980384707450867
      ],
      "type": "VEC3"
    },
    {
      "bufferView": 1,
      "byteOffset": 45728,
      "componentType": 5126,
      "count": 2102,
      "max": [
        0.991802990436554,
        1.9867160320281982
      ],
      "min": [
        0.006260999944061041,
        1.003119945526123
      ],
      "type": "VEC2"
    },
    {
      "bufferView": 0,
      "byteOffset": 109368,
      "componentType": 5125,
      "count": 10626,
      "type": "SCALAR"
    },
    {
      "bufferView": 2,
      "byteOffset": 187632,
      "componentType": 5126,
      "count": 3069,
      "max": [
        0.14412200450897217,
        0.13798999786376953,
        0.84169602394104
      ],
      "min": [
        -0.1481969952583313,
        -0.1684889942407608,
        0.4547030031681061
      ],
      "type": "VEC3"
    },
    {
      "bufferView": 2,
      "byteOffset": 224460,
      "componentType": 5126,
      "count": 3069,
      "max": [
        0.9999973773956299,
        0.9999985098838806,
        0.9999966621398926
      ],
      "min": [
        -0.9999973773956299,
        -0.9999992251396179,
        -0.9999966621398926
      ],
      "type": "VEC3"
    },
    {
      "bufferView": 1,
      "byteOffset": 62544,
      "componentType": 5126,
      "count": 3069,
      "max": [
        1.0000629425048828,
        1.98847496509552
      ],
      "min": [
        0.0059540001675486565,
        1.00308096408844
      ],
      "type": "VEC2"
    },
    {
      "bufferView": 0,
      "byteOffset": 151872,
      "componentType": 5125,
      "count": 13971,
      "type": "SCALAR"
    }
  ],
  "asset": {
    "extras": {
      "author": "drewsdigitaldesigns (https://sketchfab.com/drewsdigitaldesigns)",
      "license": "CC-BY-4.0 (http://creativecommons.org/licenses/by/4.0/)",
      "source": "https://sketchfab.com/3d-models/akuma-c64598c565154ee9bfe053bf58abf278",
      "title": "AKUMA"
    },
    "generator": "Sketchfab-14.32.1",
    "version": "2.0"
  },
  "bufferViews": [
    {
      "buffer": 0,
      "byteLength": 207756,
      "name": "floatBufferViews",
      "target": 34963
    },
    {
      "buffer": 0,
      "byteLength": 87096,
      "byteOffset": 207756,
      "byteStride": 8,
      "name": "floatBufferViews",
      "target": 34962
    },
    {
      "buffer": 0,
      "byteLength": 261288,
      "byteOffset": 294852,
      "byteStride": 12,
      "name": "floatBufferViews",
      "target": 34962
    }
  ],
  "buffers": [
    {
      "byteLength": 556140,
      "uri": "scene.bin"
    }
  ],
  "images": [
    {
      "uri": "textures/mesh0093mat_baseColor.png"
    },
    {
      "uri": "textures/mesh0095mat_baseColor.png"
    },
    {
      "uri": "textures/mesh0096mat_baseColor.png"
    },
    {
      "uri": "textures/mesh0098mat_baseColor.png"
    }
  ],
  "materials": [
    {
      "doubleSided": true,
      "name": "mesh0093mat",
      "pbrMetallicRoughness": {
        "baseColorTexture": {
          "index": 0
        },
        "metallicFactor": 0.0
      }
    },
    {
      "doubleSided": true,
      "name": "mesh0095mat",
      "pbrMetallicRoughness": {
        "baseColorTexture": {
          "index": 1
        },
        "metallicFactor": 0.0
      }
    },
    {
      "doubleSided": true,
      "name": "mesh0096mat",
      "pbrMetallicRoughness": {
        "baseColorTexture": {
          "index": 2
        },
        "metallicFactor": 0.0
      }
    },
    {
      "doubleSided": true,
      "name": "mesh0098mat",
      "pbrMetallicRoughness": {
        "baseColorTexture": {
          "index": 3
        },
        "metallicFactor": 0.0
      }
    }
  ],
  "meshes": [
    {
      "name": "Object_0",
      "primitives": [
        {
          "attributes": {
            "NORMAL": 1,
            "POSITION": 0,
            "TEXCOORD_0": 2
          },
          "indices": 3,
          "material": 0,
          "mode": 4
        }
      ]
    },
    {
      "name": "Object_1",
      "primitives": [
        {
          "attributes": {
            "NORMAL": 5,
            "POSITION": 4,
            "TEXCOORD_0": 6
          },
          "indices": 7,
          "material": 1,
          "mode": 4
        }
      ]
    },
    {
      "name": "Object_2",
      "primitives": [
        {
          "attributes": {
            "NORMAL": 9,
            "POSITION": 8,
            "TEXCOORD_0": 10
          },
          "indices": 11,
          "material": 2,
          "mode": 4
        }
      ]
    },
    {
      "name": "Object_3",
      "primitives": [
        {
          "attributes": {
            "NORMAL": 13,
            "POSITION": 12,
            "TEXCOORD_0": 14
          },
          "indices": 15,
          "material": 3,
          "mode": 4
        }
      ]
    }
  ],
  "nodes": [
    {
      "children": [
        1
      ],
      "matrix": [
        -1.0,
        -1.6081226229577284e-16,
        -2.8327693431939995e-16,
        0.0,
        -2.832769343193999e-16,
        -2.220446049250313e-16,
        1.0,
        0.0,
        -1.6081226229577292e-16,
        1.0,
        2.2204460492503128e-16,
        0.0,
        0.0,
        0.0,
        0.0,
        1.0
      ],
      "name": "Sketchfab_model"
    },
    {
      "children": [
        2,
        3,
        4,
        5
      ],
      "name": "AKUMA.obj.cleaner.materialmerger.gles"
    },
    {
      "mesh": 0,
      "name": "Object_2"
    },
    {
      "mesh": 1,
      "name": "Object_3"
    },
    {
      "mesh": 2,
      "name": "Object_4"
    },
    {
      "mesh": 3,
      "name": "Object_5"
    }
  ],
  "samplers": [
    {
      "magFilter": 9729,
      "minFilter": 9987,
      "wrapS": 10497,
      "wrapT": 10497
    }
  ],
  "scene": 0,
  "scenes": [
    {
      "name": "Sketchfab_Scene",
      "nodes": [
        0
      ]
    }
  ],
  "textures": [
    {
      "sampler": 0,
      "source": 0
    },
    {
      "sampler": 0,
      "source": 1
    },
    {
      "sampler": 0,
      "source": 2
    },
    {
      "sampler": 0,
      "source": 3
    }
  ]
}
